# xmcd
#
# Track frame offsets:
#	150
#	16250
#	30362
#	44057
#	61875
#	73000
#	87665
#	102922
#	118450
#	131277
#	149170
#	165735
#	180132
#	194195
#	208237
#	222687
#	236880
#	252387
#	268905
#	281445
#
# Disc length: 3983 seconds
#
# Revision: 0
# Processed by: cddbd v1.5.2PL0 Copyright (c) Steve Scherf et al.
# Submitted via: EasyCDDAExtractor 15.3.0.1
#
DISCID=480f8d14
DTITLE=Randy Travis - Anthology [CD1-Greatest Hits]
DYEAR=2006
DGENRE=
TTITLE0=Forever and Ever, Amen
TTITLE1=On the Other Hand
TTITLE2=Diggin' Up Bones
TTITLE3=It's Just a Matter of Time
TTITLE4=Too Gone Too Lone
TTITLE5=Heroes and Friends
TTITLE6=The Box
TTITLE7=He Walked On Water
TTITLE8=Honky Tonk Moon
TTITLE9=Hard Rock Bottom of Your Heart
TTITLE10=Deeper Than The Holler
TTITLE11=I Won't Need You Any More
TTITLE12=If I  Didn't Have You
TTITLE13=Forever, Together
TTITLE14=Look Heart, No Hands
TTITLE15=Whisper My Name
TTITLE16=This Is Me
TTITLE17=A Few Ole Country Boys
TTITLE18=Out Of My Bones
TTITLE19=Spirit of a Boy, Wisdom of a Man
EXTD=
EXTT0=
EXTT1=
EXTT2=
EXTT3=
EXTT4=
EXTT5=
EXTT6=
EXTT7=
EXTT8=
EXTT9=
EXTT10=
EXTT11=
EXTT12=
EXTT13=
EXTT14=
EXTT15=
EXTT16=
EXTT17=
EXTT18=
EXTT19=
PLAYORDER=
